<svg width="328.4210571289062px" height="105.26315307617188px" xmlns="http://www.w3.org/2000/svg" viewBox="85.78947143554689 22.368423461914062 328.4210571289062 105.26315307617188" style="background: rgba(0, 0, 0, 0);" preserveAspectRatio="xMidYMid"><defs><filter id="editing-hole" x="-100%" y="-100%" width="300%" height="300%"><feFlood flood-color="#000000" result="black"></feFlood><feMorphology operator="dilate" radius="2" in="SourceGraphic" result="erode"></feMorphology><feGaussianBlur in="erode" stdDeviation="4" result="blur"></feGaussianBlur><feOffset in="blur" dx="2" dy="2" result="offset"></feOffset><feComposite operator="atop" in="offset" in2="black" result="merge"></feComposite><feComposite operator="in" in="merge" in2="SourceGraphic" result="inner-shadow"></feComposite></filter></defs><g filter="url(#editing-hole)"><g transform="translate(137.59504294395447, 101.61500549316406)"><path d="M26.20-29.15L27.66-26.15L7.76-15.48L27.66-5.30L26.22-2.34L3.91-13.84L3.91-17.21L26.20-29.15ZM49.12-43.46L49.51-46.29L49.51-46.29Q47.95-46.66 46.36-46.66L46.36-46.66L46.36-46.66Q42.85-46.66 41.36-45.17L41.36-45.17L41.36-45.17Q39.92-43.68 39.92-40.14L39.92-40.14L39.92-27.08L39.92-27.08Q39.92-24.95 38.87-24.10L38.87-24.10L38.87-24.10Q37.82-23.24 34.06-22.36L34.06-22.36L34.06-18.51L34.06-18.51Q37.72-17.65 38.61-16.89L38.61-16.89L38.61-16.89Q39.50-16.14 39.71-15.42L39.71-15.42L39.71-15.42Q39.92-14.70 39.92-13.65L39.92-13.65L39.92 0.05L39.92 0.05Q39.92 3.59 41.36 5.08L41.36 5.08L41.36 5.08Q42.85 6.57 46.14 6.57L46.14 6.57L46.14 6.57Q47.95 6.57 49.51 6.20L49.51 6.20L49.12 3.37L49.12 3.37Q47.56 3.59 46.63 3.59L46.63 3.59L46.63 3.59Q45.70 3.59 45.17 3.44L45.17 3.44L45.17 3.44Q44.63 3.30 44.26 2.93L44.26 2.93L44.26 2.93Q43.58 2.25 43.58 0.51L43.58 0.51L43.58-13.84L43.58-13.84Q43.58-16.46 42.80-17.50L42.80-17.50L42.80-17.50Q41.19-19.65 37.18-20.43L37.18-20.43L37.18-20.43Q42.87-21.56 43.43-25L43.43-25L43.43-25Q43.58-26.00 43.58-27.03L43.58-27.03L43.58-40.60L43.58-40.60Q43.58-42.33 44.12-42.87L44.12-42.87L44.12-42.87Q44.92-43.68 46.24-43.68L46.24-43.68L46.24-43.68Q47.56-43.68 49.12-43.46L49.12-43.46ZM79.22 0.10L78.64-3.25L78.64-3.25Q73.49 0.49 68.16 0.49L68.16 0.49L68.16 0.49Q62.28 0.49 60.33-3.83L60.33-3.83L60.33-3.83Q59.20-6.27 59.07-9.00L59.07-9.00L59.07-9.00Q58.94-11.72 58.94-13.78L58.94-13.78L58.94-13.78Q58.94-15.84 58.97-17.94L58.97-17.94L58.97-17.94Q59.01-20.04 59.28-21.83L59.28-21.83L59.28-21.83Q59.55-23.61 60.12-25.04L60.12-25.04L60.12-25.04Q60.69-26.46 61.77-27.47L61.77-27.47L61.77-27.47Q63.99-29.54 69.10-29.54L69.10-29.54L69.10-29.54Q74.22-29.54 78.34-27.76L78.34-27.76L78.34-41.55L82.40-41.94L82.40-13.35L82.40-13.35Q82.40-4.93 82.86-0.20L82.86-0.20L79.22 0.10ZM78.32-13.55L78.34-24.41L78.34-24.41Q73.95-25.88 69.85-25.88L69.85-25.88L69.85-25.88Q66.87-25.88 65.92-25.39L65.92-25.39L65.92-25.39Q64.97-24.90 64.47-24.12L64.47-24.12L64.47-24.12Q63.96-23.34 63.65-21.97L63.65-21.97L63.65-21.97Q63.09-19.41 63.09-13.53L63.09-13.53L63.09-12.99L63.09-12.99Q63.09-7.50 64.28-5.40L64.28-5.40L64.28-5.40Q65.58-3.17 69.09-3.17L69.09-3.17L69.46-3.17L69.46-3.17Q72.83-3.17 76.64-5.32L76.64-5.32L76.64-5.32Q77.69-5.91 78.44-6.49L78.44-6.49L78.44-6.54L78.44-6.54Q78.32-8.81 78.32-13.55L78.32-13.55ZM112.04-4.59L113.26-1.29L113.26-1.29Q109.86 0.49 103.96 0.49L103.96 0.49L103.96 0.49Q100.46 0.49 98.83-0.05L98.83-0.05L98.83-0.05Q94.65-1.46 93.36-4.86L93.36-4.86L93.36-4.86Q92.46-7.23 92.31-9.96L92.31-9.96L92.31-9.96Q92.16-12.70 92.16-14.58L92.16-14.58L92.16-14.58Q92.16-16.46 92.26-18.25L92.26-18.25L92.26-18.25Q92.36-20.04 92.74-21.70L92.74-21.70L92.74-21.70Q93.12-23.36 93.90-24.79L93.90-24.79L93.90-24.79Q94.68-26.22 96.02-27.29L96.02-27.29L96.02-27.29Q98.93-29.54 104.37-29.54L104.37-29.54L104.37-29.54Q108.37-29.54 111.74-28.37L111.74-28.37L111.74-28.37Q112.65-28.08 113.11-27.81L113.11-27.81L111.89-24.19L111.89-24.19Q107.20-26.00 104.21-26.00L104.21-26.00L104.21-26.00Q101.22-26.00 99.82-25.32L99.82-25.32L99.82-25.32Q98.41-24.63 97.63-23.24L97.63-23.24L97.63-23.24Q96.31-20.85 96.31-14.45L96.31-14.45L96.31-14.45Q96.31-11.89 96.48-9.78L96.48-9.78L96.48-9.78Q96.66-7.67 97.34-6.15L97.34-6.15L97.34-6.15Q98.78-3.03 103.28-3.03L103.28-3.03L103.28-3.03Q107.79-3.03 112.04-4.59L112.04-4.59ZM136.01-25.73L136.01-25.73L136.01-25.73Q131.25-25.73 126.32-22.92L126.32-22.92L126.32 0L122.27 0L122.27-29.05L125.83-29.05L126.22-26.05L126.22-26.05Q128.88-28.22 132.84-29.15L132.84-29.15L132.84-29.15Q134.45-29.54 136.62-29.54L136.62-29.54L136.62-29.54Q138.79-29.54 140.45-29.04L140.45-29.04L140.45-29.04Q142.11-28.54 143.09-27.44L143.09-27.44L143.09-27.44Q144.87-25.46 144.87-20.24L144.87-20.24L144.87 0L140.77 0L140.77-19.48L140.77-19.48Q140.77-23.00 140.09-24.01L140.09-24.01L140.09-24.01Q139.40-25.02 138.46-25.38L138.46-25.38L138.46-25.38Q137.52-25.73 136.01-25.73ZM155.13-43.46L154.74-46.29L154.74-46.29Q156.30-46.66 157.89-46.66L157.89-46.66L157.89-46.66Q161.40-46.66 162.89-45.17L162.89-45.17L162.89-45.17Q164.33-43.68 164.33-40.14L164.33-40.14L164.33-27.08L164.33-27.08Q164.33-24.95 165.38-24.10L165.38-24.10L165.38-24.10Q166.43-23.24 170.19-22.36L170.19-22.36L170.19-18.51L170.19-18.51Q166.53-17.65 165.64-16.89L165.64-16.89L165.64-16.89Q164.75-16.14 164.54-15.42L164.54-15.42L164.54-15.42Q164.33-14.70 164.33-13.65L164.33-13.65L164.33 0.05L164.33 0.05Q164.33 3.59 162.89 5.08L162.89 5.08L162.89 5.08Q161.40 6.57 158.11 6.57L158.11 6.57L158.11 6.57Q156.30 6.57 154.74 6.20L154.74 6.20L155.13 3.37L155.13 3.37Q156.69 3.59 157.62 3.59L157.62 3.59L157.62 3.59Q158.54 3.59 159.08 3.44L159.08 3.44L159.08 3.44Q159.62 3.30 159.99 2.93L159.99 2.93L159.99 2.93Q160.67 2.25 160.67 0.51L160.67 0.51L160.67-13.84L160.67-13.84Q160.67-16.46 161.45-17.50L161.45-17.50L161.45-17.50Q163.06-19.65 167.07-20.43L167.07-20.43L167.07-20.43Q161.38-21.56 160.82-25L160.82-25L160.82-25Q160.67-26.00 160.67-27.03L160.67-27.03L160.67-40.60L160.67-40.60Q160.67-42.33 160.13-42.87L160.13-42.87L160.13-42.87Q159.33-43.68 158.01-43.68L158.01-43.68L158.01-43.68Q156.69-43.68 155.13-43.46L155.13-43.46ZM171.17 2.78L187.74-44.58L191.38-44.58L174.71 2.78L171.17 2.78ZM198.61-2.34L197.14-5.35L217.04-16.02L197.14-26.20L198.58-29.15L220.90-17.65L220.90-14.28L198.61-2.34Z" fill="#000000"></path></g></g><style>text {
  font-size: 64px;
  font-family: Arial Black;
  dominant-baseline: central;
  text-anchor: middle;
}</style></svg>