<svg width="401.0526977539062px" height="137.89473571777341px" xmlns="http://www.w3.org/2000/svg" viewBox="49.47365112304689 6.052632141113293 401.0526977539062 137.89473571777341" style="background: rgba(0, 0, 0, 0);" preserveAspectRatio="xMidYMid"><defs><filter id="editing-extrusion" x="-100%" y="-100%" width="300%" height="300%"><feFlood result="color1" flood-color="#2f3640"></feFlood><feConvolveMatrix order="4,4" divisor="1" kernelMatrix="1 0 0 0 0 1 0 0 0 0 1 0 0 0 0 1" in="SourceAlpha" result="extrude"></feConvolveMatrix><feComposite in="color1" in2="extrude" result="comp-extrude" operator="in"></feComposite><feOffset dx="2" dy="2" in="comp-extrude" result="offset-extrude"></feOffset><feMerge><feMergeNode in="offset-extrude"></feMergeNode><feMergeNode in="SourceGraphic"></feMergeNode></feMerge></filter></defs><g filter="url(#editing-extrusion)"><g transform="translate(109.93505191802979, 103.70500373840332)"><path d="M37.89-25.09L14.91-16.64L37.89-8.26L37.89 0.83L4.29-12.10L4.29-21.25L37.89-34.24L37.89-25.09ZM64.58-40.90L64.58-40.90Q59.84-40.90 59.71-38.27L59.71-38.27L59.07-25.41L59.07-25.41Q58.75-18.82 52.61-18.82L52.61-18.82L52.61-18.24L52.61-18.24Q58.75-18.24 59.07-11.65L59.07-11.65L59.71 1.28L59.71 1.28Q59.84 3.97 64.58 3.97L64.58 3.97L64.58 10.24L58.75 10.24L58.75 10.24Q55.10 10.24 52.42 8.38L52.42 8.38L52.42 8.38Q49.73 6.53 49.73 3.07L49.73 3.07L49.73-12.48L49.73-12.48Q49.73-14.27 48.13-15.14L48.13-15.14L48.13-15.14Q46.53-16 44.16-16L44.16-16L44.16-21.06L44.16-21.06Q46.34-21.06 48.03-21.98L48.03-21.98L48.03-21.98Q49.73-22.91 49.73-24.70L49.73-24.70L49.73-40L49.73-40Q49.73-43.46 52.42-45.31L52.42-45.31L52.42-45.31Q55.10-47.17 58.75-47.17L58.75-47.17L64.58-47.17L64.58-40.90ZM105.92 0L95.55 0L94.46-4.80L94.46-4.80Q90.75 0.77 83.71 0.77L83.71 0.77L83.71 0.77Q76.86 0.77 73.15-3.71L73.15-3.71L73.15-3.71Q69.44-8.19 69.44-16.96L69.44-16.96L69.44-16.96Q69.44-25.66 73.15-30.11L73.15-30.11L73.15-30.11Q76.86-34.56 83.71-34.56L83.71-34.56L83.71-34.56Q89.54-34.56 93.18-30.66L93.18-30.66L93.18-46.40L105.92-46.40L105.92 0ZM87.68-25.15L87.68-25.15Q82.18-25.15 82.18-18.56L82.18-18.56L82.18-15.17L82.18-15.17Q82.18-8.64 87.68-8.64L87.68-8.64L87.68-8.64Q90.50-8.64 91.90-10.62L91.90-10.62L91.90-10.62Q93.31-12.61 93.31-15.81L93.31-15.81L93.31-17.92L93.31-17.92Q93.31-21.12 91.90-23.14L91.90-23.14L91.90-23.14Q90.50-25.15 87.68-25.15L87.68-25.15ZM131.14-34.56L131.14-34.56Q139.46-34.56 144.61-31.01L144.61-31.01L144.61-31.01Q149.76-27.46 149.76-20.16L149.76-20.16L137.41-20.16L137.41-20.16Q137.41-25.92 131.14-25.92L131.14-25.92L131.14-25.92Q124.86-25.92 124.86-18.69L124.86-18.69L124.86-15.04L124.86-15.04Q124.86-7.87 131.39-7.87L131.39-7.87L131.39-7.87Q137.92-7.87 137.92-13.76L137.92-13.76L149.76-13.76L149.76-13.76Q149.76-6.40 144.61-2.82L144.61-2.82L144.61-2.82Q139.46 0.77 131.14 0.77L131.14 0.77L131.14 0.77Q122.24 0.77 117.18-3.71L117.18-3.71L117.18-3.71Q112.13-8.19 112.13-16.90L112.13-16.90L112.13-16.90Q112.13-25.60 117.18-30.08L117.18-30.08L117.18-30.08Q122.24-34.56 131.14-34.56L131.14-34.56ZM179.65-34.56L179.65-34.56Q185.54-34.56 188.48-31.30L188.48-31.30L188.48-31.30Q191.42-28.03 191.42-21.89L191.42-21.89L191.42 0L178.69 0L178.69-20.35L178.69-20.35Q178.69-22.53 177.57-23.84L177.57-23.84L177.57-23.84Q176.45-25.15 174.40-25.15L174.40-25.15L174.40-25.15Q172.03-25.15 170.56-23.62L170.56-23.62L170.56-23.62Q169.09-22.08 169.09-19.84L169.09-19.84L169.09 0L156.35 0L156.35-33.79L166.78-33.79L167.62-28.67L167.62-28.67Q169.60-31.36 172.83-32.96L172.83-32.96L172.83-32.96Q176.06-34.56 179.65-34.56L179.65-34.56ZM203.58-47.17L203.58-47.17Q207.23-47.17 209.92-45.31L209.92-45.31L209.92-45.31Q212.61-43.46 212.61-40L212.61-40L212.61-24.70L212.61-24.70Q212.61-22.91 214.30-21.98L214.30-21.98L214.30-21.98Q216-21.06 218.18-21.06L218.18-21.06L218.18-16L218.18-16Q215.81-16 214.21-15.14L214.21-15.14L214.21-15.14Q212.61-14.27 212.61-12.48L212.61-12.48L212.61 3.07L212.61 3.07Q212.61 6.53 209.92 8.38L209.92 8.38L209.92 8.38Q207.23 10.24 203.58 10.24L203.58 10.24L197.76 10.24L197.76 3.97L197.76 3.97Q202.50 3.97 202.62 1.28L202.62 1.28L203.26-11.65L203.26-11.65Q203.58-18.24 209.73-18.24L209.73-18.24L209.73-18.82L209.73-18.82Q203.58-18.82 203.26-25.41L203.26-25.41L202.62-38.27L202.62-38.27Q202.50-40.90 197.76-40.90L197.76-40.90L197.76-47.17L203.58-47.17ZM227.78 3.07L219.97 3.07L230.21-47.10L237.95-47.10L227.78 3.07ZM275.84-21.25L275.84-12.10L242.24 0.83L242.24-8.26L265.22-16.64L242.24-25.09L242.24-34.24L275.84-21.25Z" fill="#718093"></path></g></g><style>text {
  font-size: 64px;
  font-family: Arial Black;
  dominant-baseline: central;
  text-anchor: middle;
}</style></svg>